<svg xmlns="http://www.w3.org/2000/svg" width="0.361in" height="0.444in">
    <path fill-rule="evenodd" fill="rgb(216, 216, 216)" d="M13.000,3.743 L23.000,13.743 L23.000,29.000 L18.000,29.000 L18.000,22.000 C18.000,20.895 17.104,20.000 16.000,20.000 L10.000,20.000 C8.895,20.000 8.000,20.895 8.000,22.000 L8.000,29.000 L3.000,29.000 L3.000,13.743 L13.000,3.743 M13.884,0.384 C13.395,-0.105 12.604,-0.105 12.116,0.384 L0.586,11.914 C0.211,12.289 -0.000,12.798 -0.000,13.328 L-0.000,30.000 C-0.000,31.104 0.895,32.000 2.000,32.000 L9.000,32.000 C10.104,32.000 11.000,31.104 11.000,30.000 L11.000,23.000 L15.000,23.000 L15.000,30.000 C15.000,31.104 15.895,32.000 17.000,32.000 L24.000,32.000 C25.104,32.000 26.000,31.104 26.000,30.000 L26.000,13.328 C26.000,12.798 25.789,12.289 25.414,11.914 L13.884,0.384 Z"/>
</svg>